                  -----=====HD Desi Rockers Releases=====-----

Plot:

It is the year 1250 B.C. during the late Bronze age. Two emerging nations begin to clash after Paris, the Trojan prince, convinces Helen, Queen of Sparta, to leave her husband Menelaus, and sail with him back to Troy. After Menelaus finds out that his wife was taken by the Trojans, he asks his brother Agamemnom to help him get her back. Agamemnon sees this as an opportunity for power. So they set off with 1,000 ships holding 50,000 Greeks to Troy. With the help of Achilles, the Greeks are able to fight the never before defeated Trojans. But they come to a stop by Hector, Prince of Troy. The whole movie shows their battle struggles, and the foreshadowing of fate in this remake by Wolfgang Petersen of Homer's "The Iliad.

Cast:
    Julian Glover     ...     Triopas

    Brian Cox     ...     Agamemnon

    Nathan Jones     ...     Boagrius

    Adoni Maropis     ...     Agamemnon's Officer

    Jacob Smith     ...     Messenger Boy

    Brad Pitt     ...     Achilles
    
    John Shrapnel     ...     Nestor

    Brendan Gleeson     ...     Menelaus

    Diane Kruger     ...     Helen

    Eric Bana     ...     Hector

    Orlando Bloom     ...     Paris

    Siri Svegler     ...     Polydora

    Lucie Barat     ...     Helen's Handmaiden

    Ken Bones     ...     Hippasus

    Manuel Cauchi     ...     Old Spartan Fisherman

    Mark Lewis Jones ...     Tecton

    Garrett Hedlund     ...     Patroclus
 
    Sean Bean     ...     Odysseus

    Julie Christie     ...     Thetis

    Peter O'Toole     ...     Priam

    James Cosmo     ...     Glaucus

    Nigel Terry     ...     Archeptolemus

    Trevor Eve     ...     Velior

    Owain Yeoman     ...     Lysander

    Saffron Burrows     ...     Andromache

    Luke Tal     ...     Scamandrius

    Matthew Tal     ...     Scamandrius

    Rose Byrne     ...     Briseis

    Vincent Regan     ...     Eudorus

    Tyler Mane     ...     Ajax

    Louis Dempsey     ...     Aphareus

    Joshua Richards     ...     Haemon

    Tim Chipping     ...     Echepolus

    Desislava 
    Stefanova     ...     Singing Woman

    Tanja Tzarovska     ...     Singing Woman

    Alex King     ...     Apollonian Guard

    Frankie Fitzgerald    ...     Aeneas[/B]


General
Complete name                    : Troy DVDRip Hindi~3385VKSH
File size                        : 881 MiB
Duration                         : 2h 35mn
Overall bit rate                 : 792 Kbps
Encoded date                     : UTC 2010-09-02 08:37:46
Writing application              : mkvmerge v4.2.0 ('No Talking') built on Jul 28 2010 18:38:23
Writing library                  : libebml v1.0.0 + libmatroska v1.0.0

Video
ID                               : 1
Format                           : AVC
Format/Info                      : Advanced Video Codec
Format profile                   : High@L4.1
Format settings, CABAC           : Yes
Format settings, ReFrames        : 10 frames
Muxing mode                      : Container profile=Unknown@4.1
Codec ID                         : V_MPEG4/ISO/AVC
Duration                         : 2h 35mn
Bit rate                         : 514 Kbps
Width                            : 704 pixels
Height                           : 352 pixels
Display aspect ratio             : 2.40:1
Original display aspect ratio    : 2.40:1
Frame rate                       : 25.000 fps
Original frame rate              : 23.976 fps
Color space                      : YUV
Chroma subsampling               : 4:2:0
Bit depth                        : 8 bits
Scan type                        : Progressive
Bits/(Pixel*Frame)               : 0.083
Stream size                      : 579 MiB (66%)
Writing library                  : x264 core 60 r900 a9af942
Encoding settings                : cabac=1 / ref=10 / deblock=1:-2:-1 / analyse=0x3:0x113 / me=umh / subme=6 / brdo=1 / mixed_ref=1 / me_range=16 / chroma_me=1 / trellis=2 / 8x8dct=1 / cqm=0 / deadzone=21,11 / chroma_qp_offset=0 / threads=6 / nr=0 / decimate=0 / mbaff=0 / bframes=16 / b_pyramid=1 / b_adapt=1 / b_bias=0 / direct=3 / wpredb=1 / bime=1 / keyint=250 / keyint_min=25 / scenecut=40(pre) / rc=2pass / bitrate=514 / ratetol=1.0 / rceq='blurCplx^(1-qComp)' / qcomp=1.00 / qpmin=10 / qpmax=51 / qpstep=4 / cplxblur=20.0 / qblur=0.5 / ip_ratio=1.40 / pb_ratio=1.30 / aq=2:1.00

Audio
ID                               : 2
Format                           : MPEG Audio
Format version                   : Version 1
Format profile                   : Layer 3
Codec ID                         : A_MPEG/L3
Codec ID/Hint                    : MP3
Duration                         : 2h 35mn
Bit rate mode                    : Constant
Bit rate                         : 256 Kbps
Channel(s)                       : 2 channels
Sampling rate                    : 44.1 KHz
Video delay                      : 21ms
Stream size                      : 285 MiB (32%)
Language                         : Hindi

ScreenShots:
 
http://img833.imageshack.us/img833/1415/troydvdriphindimkvsnaps.jpg
 
http://img696.imageshack.us/img696/1415/troydvdriphindimkvsnaps.jpg
 
http://img833.imageshack.us/img833/6012/troydvdriphindimkvsnapsp.jpg
 
http://img638.imageshack.us/img638/1415/troydvdriphindimkvsnaps.jpg
 
http://img295.imageshack.us/img295/1415/troydvdriphindimkvsnaps.jpg
 
http://img339.imageshack.us/img339/1415/troydvdriphindimkvsnaps.jpg
 
http://img43.imageshack.us/img43/1415/troydvdriphindimkvsnaps.jpg



